<svg aria-hidden="true" style="position: absolute; width: 0; height: 0; overflow: hidden;" version="1.1" xmlns="http://www.w3.org/2000/svg" xmlns:xlink="http://www.w3.org/1999/xlink">
<defs>
<symbol id="icon-email" viewBox="0 0 32 32">
<path fill="#fff" style="fill: var(--color1, #fff); stroke: var(--color2, #000)" stroke="#000" stroke-linejoin="round" stroke-linecap="round" stroke-miterlimit="4" stroke-width="3.5556" d="M5.689 6.044h20.622c1.418 0 2.578 1.16 2.578 2.578v15.467c0 1.418-1.16 2.578-2.578 2.578h-20.622c-1.418 0-2.578-1.16-2.578-2.578v-15.467c0-1.418 1.16-2.578 2.578-2.578z"></path>
<path fill="#fff" style="fill: var(--color1, #fff)" d="M28.889 8.622l-12.889 9.022-12.889-9.022z"></path>
<path fill="none" stroke="#000" style="stroke: var(--color2, #000)" stroke-linejoin="round" stroke-linecap="round" stroke-miterlimit="4" stroke-width="3.5556" d="M28.889 8.622l-12.889 9.022-12.889-9.022"></path>
</symbol>
<symbol id="icon-facebook" viewBox="0 0 32 32">
<path fill="#3b5999" style="fill: var(--color3, #3b5999)" d="M28 0.8h-24c-2.207 0-4 1.656-4 3.693v22.16c0 2.036 1.793 3.693 4 3.693h24c2.205 0 4-1.657 4-3.693v-22.16c0-2.037-1.795-3.693-4-3.693z"></path>
<path fill="#fff" style="fill: var(--color1, #fff)" d="M22 15.573v-3.693c0-1.019 0.896-0.923 2-0.923h2v-4.617h-4c-3.315 0-6 2.479-6 5.54v3.693h-4v4.617h4v10.157h6v-10.157h3l2-4.617h-5z"></path>
</symbol>
<symbol id="icon-google" viewBox="0 0 32 32">
<path fill="#273b7a" style="fill: var(--color4, #273b7a)" d="M16 31.024c8.836 0 16-6.615 16-14.774s-7.164-14.774-16-14.774c-8.837 0-16 6.615-16 14.774s7.163 14.774 16 14.774z"></path>
<path fill="#121149" style="fill: var(--color5, #121149)" d="M31.64 19.376l-9.783-9.033-8.156 0.601-4.166 3.512 0.535 7.639 9.263 8.607c6.144-1.202 10.985-5.66 12.307-11.326z"></path>
<path fill="#4285f4" style="fill: var(--color6, #4285f4)" d="M16.349 14.891v2.831h4.795c-0.68 2.027-2.726 3.499-5.144 3.499-2.974 0-5.384-2.226-5.384-4.972s2.41-4.971 5.384-4.971c1.39 0 2.652 0.49 3.607 1.288l2.25-2.224c-1.543-1.305-3.599-2.102-5.857-2.102-4.791 0-8.675 3.586-8.675 8.009s3.884 8.009 8.675 8.009c4.791 0 8.675-3.586 8.675-8.009 0-0.463-0.046-0.916-0.129-1.358h-8.197z"></path>
<path fill="#ea4335" style="fill: var(--color7, #ea4335)" d="M16 11.279c1.39 0 2.652 0.491 3.608 1.289l2.25-2.225c-1.543-1.306-3.599-2.103-5.857-2.103-3.322 0-6.207 1.726-7.664 4.259l2.647 1.958c0.78-1.858 2.729-3.178 5.017-3.178z"></path>
<path fill="#fbbc05" style="fill: var(--color8, #fbbc05)" d="M10.615 16.254c0-0.634 0.133-1.237 0.367-1.795l-2.647-1.958c-0.644 1.12-1.010 2.396-1.010 3.753 0 1.363 0.369 2.645 1.019 3.768l2.632-1.992c-0.229-0.553-0.36-1.15-0.36-1.777z"></path>
<path fill="#34a853" style="fill: var(--color9, #34a853)" d="M18.994 20.378c-0.856 0.531-1.885 0.843-2.993 0.843-2.295 0-4.249-1.328-5.024-3.196l-2.632 1.992c1.46 2.524 4.34 4.243 7.655 4.243 2.153 0 4.121-0.726 5.638-1.925l-2.644-1.956z"></path>
<path fill="#4285f4" style="fill: var(--color6, #4285f4)" d="M24.675 16.25c0-0.464-0.046-0.917-0.129-1.358h-8.197v2.832h4.795c-0.368 1.098-1.139 2.030-2.15 2.657l2.644 1.956c1.858-1.47 3.037-3.65 3.037-6.086z"></path>
</symbol>
<symbol id="icon-instagram" viewBox="0 0 32 32">
<path fill="#000" style="fill: var(--color2, #000)" d="M31.452 6.085c-0.291-2.52-2.447-4.51-5.176-4.779-6.844-0.674-13.708-0.674-20.552 0-2.729 0.269-4.885 2.259-5.176 4.779-0.73 6.319-0.73 12.657 0 18.976 0.291 2.52 2.447 4.51 5.176 4.779 6.844 0.674 13.709 0.674 20.553 0 2.729-0.269 4.885-2.259 5.176-4.779 0.73-6.319 0.73-12.657 0-18.976z"></path>
<path fill="#000" style="fill: var(--color2, #000)" d="M29.712 7.153c-0.258-2.236-2.171-4.002-4.593-4.24-6.073-0.598-12.165-0.598-18.238 0-2.422 0.239-4.334 2.005-4.593 4.24-0.648 5.607-0.648 11.231 0 16.838 0.259 2.236 2.171 4.002 4.593 4.241 6.073 0.598 12.165 0.598 18.238 0 2.422-0.239 4.335-2.005 4.593-4.241 0.648-5.607 0.648-11.231 0-16.838z"></path>
<path fill="#000" style="fill: var(--color2, #000)" d="M0.479 24.446c0.022 0.204 0.045 0.408 0.068 0.613 0.291 2.52 2.447 4.511 5.176 4.78 6.844 0.675 13.709 0.675 20.553 0 2.729-0.269 4.884-2.26 5.176-4.78 0.024-0.204 0.046-0.408 0.069-0.613h-31.041z"></path>
<path fill="#000" style="fill: var(--color2, #000)" d="M31.452 25.062c0.392-3.395 0.574-6.796 0.544-10.196l-7.314-6.753c-0.914-0.963-2.248-1.564-3.817-1.616-3.225-0.107-6.461-0.102-9.687 0-2.679 0.085-4.553 1.748-5.033 4.191-0.085 0.431-0.136 0.868-0.202 1.303v7.164c0.037 0.232 0.091 0.463 0.108 0.697 0.107 1.486 0.769 2.759 1.828 3.621l7.443 6.872c3.653 0.024 7.306-0.144 10.954-0.504 2.729-0.269 4.884-2.259 5.176-4.779z"></path>
<path fill="#000" style="fill: var(--color2, #000)" d="M31.452 25.060c-0.291 2.52-2.447 4.51-5.176 4.779-3.647 0.359-7.301 0.527-10.953 0.504l-7.432-6.862c0.862 0.696 1.985 1.12 3.288 1.166 3.225 0.112 6.461 0.109 9.686 0.002 2.917-0.097 5.028-2.091 5.119-4.784 0.097-2.86 0.097-5.727 0-8.587-0.042-1.243-0.514-2.336-1.297-3.163l7.31 6.749c0.029 3.4-0.152 6.801-0.545 10.197z"></path>
<path fill="#000" style="fill: var(--color2, #000)" d="M19.776 12.376c-0.937-0.942-2.281-1.533-3.776-1.533-2.831 0-5.125 2.119-5.125 4.732 0 1.38 0.64 2.621 1.66 3.486l11.859 10.948c0.628-0.051 1.255-0.107 1.883-0.168 2.729-0.269 4.885-2.259 5.176-4.779 0.067-0.579 0.128-1.159 0.182-1.738l-11.859-10.948z"></path>
<path fill="#000" style="fill: var(--color2, #000)" d="M31.938 18.756l-9.544-8.811c-0.223-0.27-0.574-0.445-0.969-0.445-0.673 0-1.22 0.504-1.22 1.126 0 0.365 0.19 0.689 0.482 0.895l11.080 10.23c0.075-0.998 0.132-1.996 0.171-2.994z"></path>
<path fill="#000" style="fill: var(--color2, #000)" d="M5.943 11.991c0.067-0.435 0.117-0.872 0.202-1.303 0.48-2.443 2.354-4.106 5.033-4.191 3.226-0.102 6.461-0.108 9.687-0 2.916 0.097 5.028 2.090 5.119 4.783 0.097 2.86 0.097 5.726 0 8.586-0.091 2.693-2.202 4.686-5.119 4.783-3.225 0.108-6.462 0.11-9.687-0.001-2.916-0.101-4.933-2.099-5.128-4.796-0.017-0.233-0.071-0.464-0.108-0.697 0-2.388 0-4.776 0-7.163zM16.003 23.052c1.476 0 2.954 0.041 4.428-0.010 2.311-0.079 3.733-1.352 3.787-3.484 0.067-2.656 0.067-5.316 0-7.972-0.054-2.131-1.477-3.434-3.787-3.48-2.932-0.057-5.868-0.057-8.8 0-2.293 0.044-3.719 1.321-3.781 3.429-0.079 2.69-0.079 5.384 0 8.074 0.062 2.108 1.488 3.355 3.781 3.433 1.456 0.050 2.915 0.010 4.372 0.010z"></path>
<path fill="#fff" style="fill: var(--color1, #fff)" d="M5.943 11.991c0.067-0.435 0.117-0.872 0.202-1.303 0.48-2.443 2.354-4.106 5.033-4.191 3.226-0.102 6.461-0.108 9.687-0 2.916 0.097 5.028 2.090 5.119 4.783 0.097 2.86 0.097 5.726 0 8.586-0.091 2.693-2.202 4.686-5.119 4.783-3.225 0.108-6.462 0.11-9.687-0.001-2.916-0.101-4.933-2.099-5.128-4.796-0.017-0.233-0.071-0.464-0.108-0.697 0-2.388 0-4.776 0-7.163zM16.003 23.052c1.476 0 2.954 0.041 4.428-0.010 2.311-0.079 3.733-1.352 3.787-3.484 0.067-2.656 0.067-5.316 0-7.972-0.054-2.131-1.477-3.434-3.787-3.48-2.932-0.057-5.868-0.057-8.8 0-2.293 0.044-3.719 1.321-3.781 3.429-0.079 2.69-0.079 5.384 0 8.074 0.062 2.108 1.488 3.355 3.781 3.433 1.456 0.050 2.915 0.010 4.372 0.010z"></path>
<path fill="#fff" style="fill: var(--color1, #fff)" d="M16 10.845c-2.831 0-5.125 2.118-5.125 4.731s2.295 4.731 5.125 4.731c2.831 0 5.125-2.118 5.125-4.731s-2.295-4.731-5.125-4.731zM16 18.678c-1.856 0-3.361-1.389-3.361-3.102s1.505-3.102 3.361-3.102c1.856 0 3.361 1.389 3.361 3.102s-1.505 3.102-3.361 3.102z"></path>
<path fill="#fff" style="fill: var(--color1, #fff)" d="M22.644 10.619c0 0.622-0.546 1.127-1.219 1.127s-1.22-0.505-1.22-1.127c0-0.623 0.546-1.127 1.22-1.127s1.219 0.505 1.219 1.127z"></path>
</symbol>
<symbol id="icon-location" viewBox="0 0 32 32">
<path fill="#fff" style="fill: var(--color1, #fff)" stroke-linejoin="round" stroke-linecap="round" stroke-miterlimit="4" stroke-width="3.5556" stroke="#000" d="M26.828 13.414c0 9.051-11.636 16.808-11.636 16.808s-11.636-7.758-11.636-16.808c0-3.086 1.226-6.046 3.408-8.228s5.142-3.408 8.228-3.408c3.086 0 6.046 1.226 8.228 3.408s3.408 5.142 3.408 8.228z"></path>
<path fill="#fff" style="fill: var(--color1, #fff)" stroke-linejoin="round" stroke-linecap="round" stroke-miterlimit="4" stroke-width="3.5556" stroke="#000" d="M15.192 17.293c2.142 0 3.879-1.737 3.879-3.879s-1.737-3.879-3.879-3.879c-2.142 0-3.879 1.737-3.879 3.879s1.737 3.879 3.879 3.879z"></path>
</symbol>
<symbol id="icon-phone" viewBox="0 0 32 32">
<path fill="#fff" style="fill: var(--color1, #fff)" stroke-linejoin="round" stroke-linecap="round" stroke-miterlimit="4" stroke-width="3.5556" stroke="#000" d="M19.090 7.124c1.223 0.378 2.305 1.112 3.108 2.109s1.291 2.21 1.4 3.486l-4.508-5.595zM19.641 2.009c2.564 0.567 4.859 1.99 6.508 4.034s2.554 4.588 2.566 7.214l-9.074-11.247zM26.338 23.323l-0.413 3.836c-0.037 0.356-0.148 0.701-0.326 1.012s-0.419 0.581-0.707 0.794c-0.288 0.213-0.618 0.363-0.967 0.44s-0.712 0.082-1.063 0.012c-3.889-0.851-7.524-2.602-10.614-5.113-2.879-2.296-5.216-5.197-6.847-8.498-1.802-3.569-2.739-7.512-2.733-11.509 0.006-0.357 0.086-0.709 0.236-1.033s0.365-0.614 0.633-0.85c0.268-0.236 0.582-0.415 0.922-0.523s0.699-0.145 1.054-0.107l3.836 0.413c0.621 0.061 1.199 0.345 1.626 0.8s0.674 1.050 0.695 1.674c0.030 1.245 0.2 2.483 0.509 3.69 0.123 0.476 0.107 0.978-0.047 1.445s-0.438 0.881-0.819 1.191l-1.799 1.449c1.476 3.397 3.842 6.333 6.847 8.498l1.799-1.449c0.385-0.306 0.849-0.496 1.338-0.547s0.983 0.040 1.422 0.262c1.114 0.558 2.287 0.988 3.497 1.282 0.612 0.154 1.145 0.528 1.5 1.051s0.504 1.156 0.421 1.782z"></path>
</symbol>
<symbol id="icon-twitter" viewBox="0 0 32 32">
<path fill="#000" style="fill: var(--color2, #000)" d="M26.276 29.84c-6.844 0.674-13.709 0.674-20.553 0-2.729-0.269-4.885-2.259-5.176-4.779-0.73-6.319-0.73-12.657 0-18.976 0.291-2.52 2.447-4.51 5.176-4.779 6.844-0.674 13.709-0.674 20.553 0 2.729 0.269 4.885 2.259 5.176 4.779 0.73 6.319 0.73 12.657 0 18.976-0.291 2.52-2.447 4.51-5.176 4.779z"></path>
<path fill="#000" style="fill: var(--color2, #000)" d="M29.712 7.154c-0.258-2.236-2.171-4.002-4.593-4.241-6.073-0.598-12.165-0.598-18.238 0-2.422 0.239-4.334 2.005-4.593 4.241-0.648 5.608-0.648 11.232 0 16.839 0.259 2.236 2.171 4.002 4.593 4.241 6.073 0.599 12.165 0.599 18.238 0 2.422-0.238 4.335-2.005 4.593-4.241 0.648-5.608 0.648-11.232 0-16.839z"></path>
<path fill="#000" style="fill: var(--color2, #000)" d="M0.48 24.449c0.022 0.204 0.045 0.408 0.068 0.613 0.291 2.519 2.447 4.509 5.176 4.778 6.844 0.674 13.709 0.674 20.553 0 2.729-0.269 4.884-2.259 5.176-4.778 0.024-0.204 0.046-0.408 0.069-0.613h-31.041z"></path>
<path fill="#000" style="fill: var(--color2, #000)" d="M31.993 14.535l-6.642-6.133c-0.744 0.393-1.4 0.611-1.895 0.732-0.278 0.069-0.505 0.106-0.668 0.127-0.749-0.709-1.795-1.149-2.953-1.149-2.278 0-4.125 1.705-4.125 3.809 0 0.076 0.002 0.151 0.008 0.226 0.011 0.182 0.036 0.362 0.075 0.536-0.951-0.013-4.042-0.248-6.989-2.581-0 0-0-0-0-0h-0l-1.39-1.284c0 0-1.631 2.628 0.767 4.623 0.105 0.108 0.221 0.216 0.348 0.321 0.010 0.010 0.021 0.021 0.030 0.031-0.315-0.020-1.261-0.107-1.809-0.464 0 0-0.11 1.606 1.339 2.789l1.17 1.090c-0.356 0.027-0.751 0.021-1.025-0.090 0 0 0.243 0.952 1.181 1.713l1.64 1.522c-0.984 0.529-2.706 1.191-4.972 1.022l9.946 8.974c3.418-0.001 6.835-0.169 10.247-0.506 2.729-0.269 4.885-2.259 5.176-4.779 0.405-3.505 0.585-7.016 0.541-10.527z"></path>
<path fill="#fff" style="fill: var(--color1, #fff)" d="M25.918 9.881c-0.708 0.342-1.774 0.5-2.128 0.546-0.003-0.016-0.006-0.031-0.009-0.046 1.202-0.686 1.57-1.979 1.57-1.979-0.744 0.393-1.4 0.611-1.895 0.732-0.278 0.069-0.505 0.106-0.668 0.127-0.749-0.709-1.795-1.149-2.953-1.149-2.278 0-4.125 1.705-4.125 3.809 0 0.076 0.002 0.151 0.008 0.226 0.011 0.182 0.036 0.362 0.075 0.536-1.103-0.015-5.082-0.327-8.38-3.864 0 0-1.836 2.958 1.251 4.979 0 0-1.251-0.036-1.915-0.469 0 0-0.195 2.851 3.361 3.752 0 0-1.25 0.289-1.876 0.036 0 0 0.626 2.453 3.752 2.634 0 0-2.242 1.895-5.904 1.623 1.801 1.053 3.936 1.662 6.225 1.662 6.436 0 11.654-4.817 11.654-10.76 0-0.074-0.001-0.148-0.002-0.223 0.002-0.044 0.002-0.088 0.002-0.132 0-0.031-0.001-0.062-0.001-0.093 1.19-0.732 1.958-1.946 1.958-1.946z"></path>
</symbol>
</defs>
</svg>
