<svg aria-hidden="true" style="position: absolute; width: 0; height: 0; overflow: hidden;" version="1.1" xmlns="http://www.w3.org/2000/svg" xmlns:xlink="http://www.w3.org/1999/xlink">
<defs>
<symbol id="icon-facebook" viewBox="0 0 34 32">
<path fill="#3b5999" style="fill: var(--color1, #3b5999)" d="M29.474 0h-25.263c-2.323 0-4.211 1.743-4.211 3.888v23.326c0 2.143 1.888 3.888 4.211 3.888h25.263c2.321 0 4.211-1.744 4.211-3.888v-23.326c0-2.145-1.889-3.888-4.211-3.888z"></path>
<path fill="#fff" style="fill: var(--color2, #fff)" d="M23.158 15.55v-3.888c0-1.073 0.943-0.972 2.105-0.972h2.105v-4.86h-4.211c-3.489 0-6.316 2.61-6.316 5.832v3.888h-4.211v4.86h4.211v10.691h6.316v-10.691h3.158l2.105-4.86h-5.263z"></path>
</symbol>
<symbol id="icon-google" viewBox="0 0 32 32">
<path fill="#273b7a" style="fill: var(--color3, #273b7a)" d="M16 31.024c8.836 0 16-6.615 16-14.774s-7.164-14.774-16-14.774c-8.837 0-16 6.615-16 14.774s7.163 14.774 16 14.774z"></path>
<path fill="#121149" style="fill: var(--color4, #121149)" d="M31.64 19.376l-9.783-9.033-8.156 0.601-4.166 3.512 0.535 7.639 9.263 8.607c6.144-1.202 10.985-5.66 12.307-11.326z"></path>
<path fill="#4285f4" style="fill: var(--color5, #4285f4)" d="M16.349 14.891v2.831h4.795c-0.68 2.027-2.726 3.499-5.144 3.499-2.974 0-5.384-2.226-5.384-4.972s2.41-4.971 5.384-4.971c1.39 0 2.652 0.49 3.607 1.288l2.25-2.224c-1.543-1.305-3.599-2.102-5.857-2.102-4.791 0-8.675 3.586-8.675 8.009s3.884 8.009 8.675 8.009c4.791 0 8.675-3.586 8.675-8.009 0-0.463-0.046-0.916-0.129-1.358h-8.197z"></path>
<path fill="#ea4335" style="fill: var(--color6, #ea4335)" d="M16 11.279c1.39 0 2.652 0.491 3.608 1.289l2.25-2.225c-1.543-1.306-3.599-2.103-5.857-2.103-3.322 0-6.207 1.726-7.664 4.259l2.647 1.958c0.78-1.858 2.729-3.178 5.017-3.178z"></path>
<path fill="#fbbc05" style="fill: var(--color7, #fbbc05)" d="M10.615 16.254c0-0.634 0.133-1.237 0.367-1.795l-2.647-1.958c-0.644 1.12-1.010 2.396-1.010 3.753 0 1.363 0.369 2.645 1.019 3.768l2.632-1.992c-0.229-0.553-0.36-1.15-0.36-1.777z"></path>
<path fill="#34a853" style="fill: var(--color8, #34a853)" d="M18.994 20.378c-0.856 0.531-1.885 0.843-2.993 0.843-2.295 0-4.249-1.328-5.024-3.196l-2.632 1.992c1.46 2.524 4.34 4.243 7.655 4.243 2.153 0 4.121-0.726 5.638-1.925l-2.644-1.956z"></path>
<path fill="#4285f4" style="fill: var(--color5, #4285f4)" d="M24.675 16.25c0-0.464-0.046-0.917-0.129-1.358h-8.197v2.832h4.795c-0.368 1.098-1.139 2.030-2.15 2.657l2.644 1.956c1.858-1.47 3.037-3.65 3.037-6.086z"></path>
</symbol>
<symbol id="icon-instagram" viewBox="0 0 34 32">
<path fill="#000" style="fill: var(--color9, #000)" d="M33.108 5.563c-0.307-2.652-2.575-4.748-5.448-5.030-7.204-0.71-14.43-0.71-21.634 0-2.873 0.283-5.142 2.378-5.448 5.030-0.769 6.652-0.769 13.323 0 19.975 0.307 2.653 2.576 4.748 5.448 5.031 7.204 0.71 14.43 0.71 21.634 0 2.873-0.283 5.142-2.378 5.448-5.031 0.769-6.652 0.769-13.323 0-19.975z"></path>
<path fill="#000" style="fill: var(--color9, #000)" d="M31.276 6.688c-0.272-2.353-2.285-4.212-4.834-4.464-6.393-0.63-12.805-0.63-19.198 0-2.549 0.251-4.563 2.11-4.835 4.464-0.682 5.902-0.682 11.822 0 17.724 0.272 2.354 2.286 4.213 4.835 4.464 6.393 0.63 12.805 0.63 19.197 0 2.549-0.251 4.563-2.11 4.835-4.464 0.682-5.902 0.682-11.822 0-17.724z"></path>
<path fill="#000" style="fill: var(--color9, #000)" d="M0.504 24.891c0.023 0.215 0.047 0.43 0.072 0.645 0.307 2.653 2.576 4.748 5.448 5.031 7.204 0.71 14.43 0.71 21.634 0 2.873-0.283 5.142-2.378 5.448-5.031 0.025-0.215 0.049-0.43 0.072-0.645h-32.675z"></path>
<path fill="#000" style="fill: var(--color9, #000)" d="M33.107 25.539c0.413-3.574 0.604-7.153 0.573-10.733l-7.699-7.108c-0.962-1.014-2.367-1.647-4.018-1.701-3.395-0.113-6.801-0.107-10.197 0-2.82 0.090-4.792 1.84-5.298 4.412-0.089 0.454-0.143 0.914-0.213 1.372v7.541c0.039 0.244 0.096 0.488 0.114 0.733 0.113 1.564 0.81 2.905 1.925 3.811l7.835 7.233c3.845 0.025 7.69-0.152 11.53-0.53 2.873-0.283 5.142-2.378 5.448-5.030z"></path>
<path fill="#000" style="fill: var(--color9, #000)" d="M33.107 25.537c-0.306 2.652-2.576 4.748-5.448 5.031-3.839 0.378-7.685 0.555-11.53 0.53l-7.823-7.224c0.907 0.733 2.089 1.179 3.461 1.227 3.395 0.118 6.801 0.115 10.196 0.002 3.071-0.102 5.292-2.201 5.388-5.036 0.102-3.010 0.102-6.028 0-9.039-0.044-1.308-0.541-2.459-1.365-3.33l7.694 7.105c0.030 3.579-0.16 7.159-0.573 10.734z"></path>
<path fill="#000" style="fill: var(--color9, #000)" d="M20.817 12.185c-0.986-0.992-2.402-1.614-3.975-1.614-2.98 0-5.395 2.23-5.395 4.981 0 1.452 0.674 2.759 1.748 3.669l12.483 11.525c0.661-0.053 1.321-0.112 1.982-0.177 2.873-0.283 5.142-2.378 5.448-5.030 0.070-0.61 0.134-1.22 0.192-1.829l-12.483-11.525z"></path>
<path fill="#000" style="fill: var(--color9, #000)" d="M33.619 18.901l-10.046-9.275c-0.234-0.284-0.604-0.468-1.020-0.468-0.709 0-1.284 0.531-1.284 1.185 0 0.385 0.2 0.726 0.507 0.942l11.663 10.768c0.079-1.050 0.139-2.101 0.18-3.152z"></path>
<path fill="#000" style="fill: var(--color9, #000)" d="M6.256 11.78c0.070-0.457 0.124-0.917 0.213-1.372 0.505-2.572 2.478-4.322 5.298-4.412 3.396-0.108 6.801-0.113 10.197-0 3.069 0.102 5.292 2.2 5.388 5.035 0.102 3.010 0.102 6.027 0 9.037-0.096 2.835-2.318 4.933-5.388 5.035-3.395 0.113-6.802 0.116-10.197-0.002-3.070-0.107-5.192-2.21-5.398-5.049-0.018-0.246-0.075-0.489-0.114-0.733 0-2.513 0-5.027 0-7.54zM16.845 23.424c1.554 0 3.109 0.043 4.661-0.010 2.433-0.083 3.929-1.424 3.986-3.668 0.070-2.796 0.070-5.596 0-8.392-0.057-2.243-1.554-3.615-3.986-3.663-3.087-0.060-6.177-0.060-9.263 0-2.413 0.047-3.914 1.391-3.98 3.61-0.083 2.831-0.083 5.668 0 8.499 0.066 2.219 1.566 3.531 3.98 3.614 1.532 0.053 3.068 0.010 4.602 0.010z"></path>
<path fill="#fff" style="fill: var(--color2, #fff)" d="M6.256 11.78c0.070-0.457 0.124-0.917 0.213-1.372 0.505-2.572 2.478-4.322 5.298-4.412 3.396-0.108 6.801-0.113 10.197-0 3.069 0.102 5.292 2.2 5.388 5.035 0.102 3.010 0.102 6.027 0 9.037-0.096 2.835-2.318 4.933-5.388 5.035-3.395 0.113-6.802 0.116-10.197-0.002-3.070-0.107-5.192-2.21-5.398-5.049-0.018-0.246-0.075-0.489-0.114-0.733 0-2.513 0-5.027 0-7.54zM16.845 23.424c1.554 0 3.109 0.043 4.661-0.010 2.433-0.083 3.929-1.424 3.986-3.668 0.070-2.796 0.070-5.596 0-8.392-0.057-2.243-1.554-3.615-3.986-3.663-3.087-0.060-6.177-0.060-9.263 0-2.413 0.047-3.914 1.391-3.98 3.61-0.083 2.831-0.083 5.668 0 8.499 0.066 2.219 1.566 3.531 3.98 3.614 1.532 0.053 3.068 0.010 4.602 0.010z"></path>
<path fill="#fff" style="fill: var(--color2, #fff)" d="M16.842 10.574c-2.98 0-5.395 2.23-5.395 4.98s2.416 4.98 5.395 4.98c2.98 0 5.395-2.23 5.395-4.98s-2.415-4.98-5.395-4.98zM16.842 18.819c-1.954 0-3.538-1.462-3.538-3.265s1.584-3.265 3.538-3.265c1.954 0 3.538 1.462 3.538 3.265s-1.584 3.265-3.538 3.265z"></path>
<path fill="#fff" style="fill: var(--color2, #fff)" d="M23.836 10.336c0 0.655-0.575 1.186-1.283 1.186s-1.284-0.531-1.284-1.186c0-0.655 0.575-1.186 1.284-1.186s1.283 0.531 1.283 1.186z"></path>
</symbol>
<symbol id="icon-twitter" viewBox="0 0 34 32">
<path fill="#000" style="fill: var(--color9, #000)" d="M27.659 30.569c-7.204 0.71-14.43 0.71-21.634 0-2.873-0.283-5.142-2.378-5.448-5.031-0.769-6.652-0.769-13.323 0-19.975 0.307-2.652 2.576-4.747 5.448-5.030 7.204-0.71 14.43-0.71 21.634 0 2.873 0.283 5.142 2.378 5.448 5.030 0.769 6.652 0.769 13.323 0 19.975-0.307 2.653-2.575 4.748-5.448 5.031z"></path>
<path fill="#000" style="fill: var(--color9, #000)" d="M31.276 6.688c-0.272-2.354-2.285-4.213-4.834-4.464-6.393-0.63-12.805-0.63-19.198 0-2.549 0.251-4.563 2.11-4.835 4.464-0.682 5.903-0.682 11.823 0 17.726 0.272 2.354 2.286 4.213 4.835 4.464 6.393 0.63 12.805 0.63 19.197 0 2.549-0.251 4.563-2.11 4.835-4.464 0.682-5.903 0.682-11.823 0-17.726z"></path>
<path fill="#000" style="fill: var(--color9, #000)" d="M0.505 24.894c0.023 0.215 0.047 0.43 0.072 0.645 0.307 2.652 2.576 4.747 5.448 5.030 7.204 0.71 14.43 0.71 21.634 0 2.873-0.283 5.142-2.378 5.448-5.030 0.025-0.215 0.049-0.43 0.072-0.645h-32.675z"></path>
<path fill="#000" style="fill: var(--color9, #000)" d="M33.677 14.457l-6.992-6.456c-0.784 0.414-1.474 0.643-1.994 0.77-0.293 0.072-0.531 0.112-0.703 0.133-0.788-0.746-1.889-1.21-3.108-1.21-2.398 0-4.342 1.795-4.342 4.009 0 0.080 0.002 0.159 0.008 0.238 0.012 0.192 0.038 0.381 0.079 0.564-1.001-0.014-4.254-0.261-7.357-2.716-0 0-0-0-0-0h-0l-1.463-1.351c0 0-1.717 2.767 0.807 4.866 0.111 0.114 0.233 0.227 0.366 0.338 0.011 0.011 0.022 0.022 0.032 0.033-0.331-0.021-1.328-0.112-1.904-0.488 0 0-0.116 1.691 1.41 2.936l1.232 1.147c-0.375 0.029-0.79 0.022-1.079-0.095 0 0 0.255 1.002 1.243 1.803l1.726 1.602c-1.035 0.557-2.848 1.254-5.234 1.076l10.47 9.446c3.597-0.001 7.195-0.178 10.787-0.532 2.873-0.283 5.142-2.378 5.448-5.031 0.426-3.69 0.616-7.386 0.569-11.081z"></path>
<path fill="#fff" style="fill: var(--color2, #fff)" d="M27.282 9.559c-0.745 0.36-1.868 0.526-2.24 0.574-0.003-0.017-0.006-0.033-0.009-0.048 1.265-0.723 1.653-2.083 1.653-2.083-0.784 0.414-1.474 0.643-1.994 0.77-0.293 0.072-0.531 0.112-0.703 0.133-0.789-0.746-1.89-1.21-3.108-1.21-2.398 0-4.342 1.795-4.342 4.009 0 0.080 0.002 0.159 0.008 0.238 0.012 0.192 0.038 0.381 0.079 0.564-1.161-0.016-5.35-0.345-8.821-4.068 0 0-1.933 3.114 1.317 5.241 0 0-1.317-0.038-2.016-0.494 0 0-0.206 3.001 3.537 3.95 0 0-1.316 0.304-1.975 0.038 0 0 0.658 2.583 3.949 2.773 0 0-2.36 1.995-6.214 1.708 1.896 1.108 4.143 1.75 6.553 1.75 6.775 0 12.267-5.071 12.267-11.327 0-0.078-0.001-0.156-0.003-0.234 0.002-0.046 0.003-0.092 0.003-0.139 0-0.033-0.001-0.065-0.001-0.098 1.253-0.771 2.061-2.048 2.061-2.048z"></path>
</symbol>
</defs>
</svg>
